<svg width="96" height="96" viewBox="0 0 96 96" fill="none" xmlns="http://www.w3.org/2000/svg">
  <rect width="96" height="96" rx="48" fill="#C78B65"/>
  <circle cx="48" cy="41" r="22" fill="#533528"/>
  <path d="M24 96c3.8-16.5 13-25.6 24-25.6S68.2 79.5 72 96H24z" fill="#F1EAD5"/>
  <circle cx="48" cy="43" r="16" fill="#E7B48E"/>
  <path d="M30 42c4.5-15 15.7-23.4 31-16.7 8 3.5 10.2 12.3 9 22.7-8.6-1.3-17-6.2-24.4-15.2-3.8 6.5-9 9.5-15.6 9.2z" fill="#5F3A2B"/>
  <circle cx="42" cy="45" r="1.8" fill="#31231E"/>
  <circle cx="55" cy="45" r="1.8" fill="#31231E"/>
  <path d="M42 55c3.8 3 8.2 3 12 0" stroke="#8E4E3B" stroke-width="2" stroke-linecap="round"/>
  <path d="M20 24c10-13 29-18 45-8" stroke="#F4D4A7" stroke-opacity=".34" stroke-width="4" stroke-linecap="round"/>
</svg>
