<svg width="96" height="96" viewBox="0 0 96 96" fill="none" xmlns="http://www.w3.org/2000/svg">
  <rect width="96" height="96" rx="48" fill="#9B6B5F"/>
  <path d="M22 96c3.9-17.1 13.7-26 26-26s22.1 8.9 26 26H22z" fill="#EDE3CA"/>
  <circle cx="48" cy="43" r="16" fill="#E0AE86"/>
  <path d="M28.5 40.5c1.5-13.7 9.5-22 22-21.1 10.1.8 16.4 8.1 16.9 19.4-11.5.5-20.2-3.3-26-11.4-2.5 6.1-6.8 10.5-12.9 13.1z" fill="#473025"/>
  <circle cx="42" cy="46" r="1.7" fill="#2A1E19"/>
  <circle cx="55" cy="46" r="1.7" fill="#2A1E19"/>
  <path d="M43 56c3.4 2.2 7.6 2.2 11 0" stroke="#89503D" stroke-width="2" stroke-linecap="round"/>
  <circle cx="24" cy="23" r="9" fill="#F1EAD5" fill-opacity=".14"/>
</svg>
