<svg width="96" height="96" viewBox="0 0 96 96" fill="none" xmlns="http://www.w3.org/2000/svg">
  <rect width="96" height="96" rx="48" fill="#6E7E5A"/>
  <path d="M24 96c3.6-17.4 12.6-26.2 24-26.2S68.4 78.6 72 96H24z" fill="#E8DFCE"/>
  <circle cx="48" cy="42" r="16" fill="#D7A27B"/>
  <path d="M29 39c2-12.6 10.1-20.2 22-19.1 9.7.9 15.8 8 16.4 19.6-13.3 1.1-22.5-2.9-27.4-12-2 5.4-5.7 9.3-11 11.5z" fill="#3E342B"/>
  <path d="M31 44c-4.4-10.1-.7-21.1 9.5-25.6 11.2-5 25.9 1.3 29 13.7" stroke="#3E342B" stroke-width="7" stroke-linecap="round"/>
  <circle cx="42" cy="45" r="1.8" fill="#2B211C"/>
  <circle cx="55" cy="45" r="1.8" fill="#2B211C"/>
  <path d="M43 55c3.5 2.5 7.5 2.5 11 0" stroke="#91513E" stroke-width="2" stroke-linecap="round"/>
  <path d="M17 31c9-16.5 24.5-23.2 46.5-20" stroke="#F1EAD5" stroke-opacity=".24" stroke-width="3" stroke-linecap="round"/>
</svg>
