<svg width="96" height="96" viewBox="0 0 96 96" fill="none" xmlns="http://www.w3.org/2000/svg">
  <rect width="96" height="96" rx="48" fill="#4E5D70"/>
  <path d="M23 96c4.1-17.3 13.4-26.1 25-26.1S68.9 78.7 73 96H23z" fill="#D6C58D"/>
  <circle cx="48" cy="42" r="16" fill="#C99170"/>
  <path d="M28 39c2-13.9 10.2-21.7 22.4-21 10.5.6 17.1 8 17.1 20.6-9.8-.2-18.1-3.8-24.8-10.9-3.3 5.6-8.2 9.3-14.7 11.3z" fill="#242424"/>
  <circle cx="42" cy="45" r="1.8" fill="#1E1917"/>
  <circle cx="55" cy="45" r="1.8" fill="#1E1917"/>
  <path d="M42 55c3.9 2.6 8.1 2.6 12 0" stroke="#7E4435" stroke-width="2" stroke-linecap="round"/>
  <path d="M23 25c10-12 27-16 42-7" stroke="#D9E7FF" stroke-opacity=".24" stroke-width="4" stroke-linecap="round"/>
</svg>
