<svg width="96" height="96" viewBox="0 0 96 96" fill="none" xmlns="http://www.w3.org/2000/svg">
  <rect width="96" height="96" rx="48" fill="#8F725C"/>
  <circle cx="48" cy="40" r="23" fill="#2D2827"/>
  <path d="M21 96c4.2-16.8 14.2-25.8 27-25.8S70.8 79.2 75 96H21z" fill="#D7C58D"/>
  <circle cx="48" cy="43" r="15.5" fill="#D9A77F"/>
  <path d="M29 42c2.4-15.4 10.6-23.2 24-22.8 10.3.3 16.4 8.7 16.5 22.8-8.9-.2-17.4-4.1-25.4-11.8-3.7 6.2-8.7 10.2-15.1 11.8z" fill="#2E2929"/>
  <circle cx="42" cy="46" r="1.7" fill="#2A2020"/>
  <circle cx="55" cy="46" r="1.7" fill="#2A2020"/>
  <path d="M43 55.5c3.2 2.1 6.8 2.1 10 0" stroke="#8E4E3B" stroke-width="2" stroke-linecap="round"/>
  <circle cx="72" cy="25" r="8" fill="#F1EAD5" fill-opacity=".16"/>
</svg>
